<svg id="visual" viewBox="0 0 1080 700" width="1080" height="700" xmlns="http://www.w3.org/2000/svg" xmlns:xlink="http://www.w3.org/1999/xlink" version="1.1"><rect x="0" y="0" width="1080" height="700"  fill="rgba(0,0,0,0)">>
</rect>
<g id="topCurve">
	<path class="st0" d="M79,267.3c-7.1,34.5,1,73.6,32.5,115.2c94.8,125.1,214.3,54.5,333,13c128.3-44.9,225.2,19.1,301,36
		c99.5,22.2,370.9-18.5,448-130c78.7-113.9,128,213,128,213c15.2-19.7-225.6-36.1-422.6-20.1c-146.6,11.9-331.4-125-446.4-45.9
		c-188.1,129.3-551.9,313-674,326c-85.8,9.1-26.4-47.3,186-348l24-450c0,0,1115-16,1115-5s2,202,2,202l5,20c0,0-250.6-166.2-477-21
		c-192.3,123.4-252.6-59.1-376-44C183.4,137.5,94.5,191.4,79,267.3" fill="#20232e" stroke-linecap="round" stroke-linejoin="miter"/>
</g>
</svg>
