<?xml version="1.0" encoding="utf-8"?>
<!-- Generator: Adobe Illustrator 23.0.5, SVG Export Plug-In . SVG Version: 6.00 Build 0)  -->
<svg version="1.1" id="Layer_1" xmlns="http://www.w3.org/2000/svg" xmlns:xlink="http://www.w3.org/1999/xlink" x="0px" y="0px"
	 viewBox="0 0 48 48" style="enable-background:new 0 0 48 48;" xml:space="preserve">
<style type="text/css">
	.st0{fill:#FFFFFF;}
</style>
<path class="st0" d="M8.3,42l-2.1-2.1l21-21c-0.7-1.6-0.9-3.3-0.5-5c0.4-1.7,1.4-3.3,2.9-4.8C31,7.6,32.8,6.7,35,6.3
	c2.1-0.4,3.9,0.1,5.3,1.4c1.4,1.4,1.9,3.1,1.4,5.3s-1.5,3.9-3,5.6c-1.4,1.4-2.9,2.3-4.6,2.8c-1.7,0.4-3.3,0.3-4.7-0.3l-3.4,3.4
	l15.6,15.6L39.4,42L23.8,26.4L8.3,42z M14.5,24.5l-5.9-6c-1.7-1.7-2.6-3.7-2.7-6.1s0.7-4.4,2.3-6.2l12.3,12.3L14.5,24.5z"/>
</svg>
