<svg id="visual" viewBox="0 0 1080 350" width="1080" height="350" xmlns="http://www.w3.org/2000/svg" xmlns:xlink="http://www.w3.org/1999/xlink" version="1.1"><rect x="0" y="0" width="1080" height="350" fill="#dcdcdc"></rect><path d="M0 74L13.8 84.2C27.7 94.3 55.3 114.7 83 121.8C110.7 129 138.3 123 166 124.3C193.7 125.7 221.3 134.3 249 138.5C276.7 142.7 304.3 142.3 332 139C359.7 135.7 387.3 129.3 415 133.7C442.7 138 470.3 153 498.2 145.5C526 138 554 108 581.8 96.7C609.7 85.3 637.3 92.7 665 103.3C692.7 114 720.3 128 748 135.5C775.7 143 803.3 144 831 147.2C858.7 150.3 886.3 155.7 914 149C941.7 142.3 969.3 123.7 997 120.8C1024.7 118 1052.3 131 1066.2 137.5L1080 144L1080 0L1066.2 0C1052.3 0 1024.7 0 997 0C969.3 0 941.7 0 914 0C886.3 0 858.7 0 831 0C803.3 0 775.7 0 748 0C720.3 0 692.7 0 665 0C637.3 0 609.7 0 581.8 0C554 0 526 0 498.2 0C470.3 0 442.7 0 415 0C387.3 0 359.7 0 332 0C304.3 0 276.7 0 249 0C221.3 0 193.7 0 166 0C138.3 0 110.7 0 83 0C55.3 0 27.7 0 13.8 0L0 0Z" fill="#20232e" stroke-linecap="round" stroke-linejoin="miter"></path></svg>