<svg id="visual" viewBox="0 0 1080 350" width="1080" height="350" xmlns="http://www.w3.org/2000/svg" xmlns:xlink="http://www.w3.org/1999/xlink" version="1.1"><rect x="0" y="0" width="1080" height="350" fill="#dcdcdc"></rect><path d="M0 116L20 127C40 138 80 160 120 156.3C160 152.7 200 123.3 240 98.3C280 73.3 320 52.7 360 52.3C400 52 440 72 480 95.3C520 118.7 560 145.3 600 141.5C640 137.7 680 103.3 720 93C760 82.7 800 96.3 840 118.3C880 140.3 920 170.7 960 178.3C1000 186 1040 171 1060 163.5L1080 156L1080 0L1060 0C1040 0 1000 0 960 0C920 0 880 0 840 0C800 0 760 0 720 0C680 0 640 0 600 0C560 0 520 0 480 0C440 0 400 0 360 0C320 0 280 0 240 0C200 0 160 0 120 0C80 0 40 0 20 0L0 0Z" fill="#20232e" stroke-linecap="round" stroke-linejoin="miter"></path></svg>